<svg width="200" height="200" viewBox="0 0 200 200" fill="none" xmlns="http://www.w3.org/2000/svg">
<circle cx="100" cy="100" r="100" fill="#C67C4E"/>
<path d="M22.34 87.232H29.54V112H22.34V87.232ZM36.236 102.46H31.052V96.7H36.236V87.232H43.436V112H36.236V102.46ZM60.2415 102.856C60.2415 101.632 60.2295 100.816 60.2055 100.408C60.1815 99.832 60.1095 99.4 59.9895 99.112C59.8695 98.8 59.6775 98.608 59.4135 98.536C59.1255 98.464 58.7295 98.428 58.2255 98.428H57.7215V93.352H58.2255C60.3135 93.352 61.9455 93.52 63.1215 93.856C64.2975 94.168 65.1735 94.696 65.7495 95.44C66.2775 96.112 66.6135 97.012 66.7575 98.14C66.9255 99.244 67.0095 100.816 67.0095 102.856C67.0095 104.752 66.9495 106.228 66.8295 107.284C66.7335 108.316 66.4815 109.168 66.0735 109.84C65.6175 110.584 64.9335 111.148 64.0215 111.532C63.1095 111.892 61.8495 112.12 60.2415 112.216V102.856ZM58.2255 112.288C56.1375 112.288 54.5055 112.132 53.3295 111.82C52.1535 111.508 51.2775 110.98 50.7015 110.236C50.1735 109.564 49.8255 108.676 49.6575 107.572C49.5135 106.468 49.4415 104.896 49.4415 102.856C49.4415 100.984 49.5015 99.52 49.6215 98.464C49.7415 97.408 50.0055 96.532 50.4135 95.836C50.8455 95.068 51.5175 94.504 52.4295 94.144C53.3415 93.76 54.6015 93.52 56.2095 93.424V102.856C56.2095 104.08 56.2215 104.884 56.2455 105.268C56.2695 105.844 56.3415 106.276 56.4615 106.564C56.5815 106.852 56.7855 107.032 57.0735 107.104C57.3135 107.176 57.6975 107.212 58.2255 107.212H58.7295V112.288H58.2255ZM71.1633 93.64H74.5473V88.312H81.2073V93.64H85.2393V98.716H71.1633V93.64ZM74.5473 100.156H81.2073V112H74.5473V100.156ZM95.2386 110.956C94.9266 109.996 94.6506 109.06 94.4106 108.148L93.2586 104.188C92.8746 102.892 92.5746 101.92 92.3586 101.272C92.1666 100.552 92.0106 100.012 91.8906 99.652L88.2186 87.232H95.5626L102.295 112H95.5626L95.2386 110.956ZM100.891 101.02L104.527 87.232H111.727L108.055 99.652L106.723 104.188C106.291 105.58 105.895 106.9 105.535 108.148C105.295 109.06 105.019 109.996 104.707 110.956L104.383 112H103.879L100.891 101.02ZM116.122 85.252H122.782V90.436H116.122V85.252ZM116.122 93.64H122.782V112H116.122V93.64ZM136.636 101.02H139.156C139.156 99.676 139.024 98.812 138.76 98.428C138.616 98.212 138.424 98.08 138.184 98.032C137.944 97.96 137.596 97.924 137.14 97.924H136.636V93.352H137.14C139.204 93.352 140.788 93.52 141.892 93.856C143.02 94.192 143.848 94.744 144.376 95.512C144.856 96.184 145.144 97.048 145.24 98.104C145.36 99.16 145.42 100.744 145.42 102.856V104.296H136.636V101.02ZM137.86 112.288C135.652 112.288 133.912 112.108 132.64 111.748C131.392 111.364 130.456 110.764 129.832 109.948C129.28 109.228 128.92 108.34 128.752 107.284C128.584 106.204 128.5 104.728 128.5 102.856C128.5 101.128 128.56 99.76 128.68 98.752C128.8 97.72 129.052 96.844 129.436 96.124C129.868 95.332 130.528 94.72 131.416 94.288C132.328 93.832 133.564 93.544 135.124 93.424V104.296C135.124 105.112 135.16 105.7 135.232 106.06C135.304 106.396 135.472 106.648 135.736 106.816C136.024 107.008 136.468 107.116 137.068 107.14C137.836 107.188 138.652 107.212 139.516 107.212C141.052 107.212 142.168 107.176 142.864 107.104L144.7 106.96V111.604C143.74 111.892 142.42 112.084 140.74 112.18C139.924 112.252 138.964 112.288 137.86 112.288ZM149.339 93.64H155.855L160.211 112H154.271L149.339 93.64ZM159.311 101.74L161.543 93.64H166.907L172.235 112H166.367L164.243 103.828H163.883L162.155 112H161.759L159.311 101.74ZM170.867 101.812L172.343 93.64H178.787L174.215 112H173.819L170.867 101.812Z" fill="#313131"/>
</svg>
